<svg viewBox="0 0 96 96" xmlns="http://www.w3.org/2000/svg" xmlns:xlink="http://www.w3.org/1999/xlink" id="Icons_UsbStick_M" overflow="hidden"><g id="Icons"><path d="M82.468 29.142 66.912 13.586 53.477 27.021 49.941 23.485 13.172 60.255C11.6099 61.8171 11.6098 64.3497 13.1719 65.9119 13.1719 65.9119 13.172 65.912 13.172 65.912L30.142 82.882C31.7041 84.4441 34.2367 84.4442 35.7989 82.8821 35.7989 82.8821 35.799 82.882 35.799 82.882L72.569 46.113 69.033 42.577ZM66.912 16.414 79.64 29.142 67.619 41.163 54.891 28.435ZM34.385 81.468C33.6041 82.2492 32.3378 82.2495 31.5566 81.4686 31.5564 81.4684 31.5562 81.4682 31.556 81.468L14.586 64.5C13.8048 63.7191 13.8045 62.4528 14.5854 61.6716 14.5856 61.6714 14.5858 61.6712 14.586 61.671L49.941 26.314 69.741 46.114Z"/><rect x="62.458" y="23.939" width="4" height="4" transform="matrix(0.707094 -0.707119 0.707119 0.707094 0.539 53.178)"/><rect x="68.115" y="29.595" width="4" height="4" transform="matrix(0.707107 -0.707107 0.707107 0.707107 -1.805 58.833)"/></g></svg>